<svg width="20" height="20" viewBox="0 0 20 20" fill="none" xmlns="http://www.w3.org/2000/svg">
<path d="M8.23319 8.2334C7.98757 8.46227 7.79056 8.73827 7.65392 9.04494C7.51729 9.3516 7.44381 9.68265 7.43789 10.0183C7.43197 10.354 7.49372 10.6874 7.61945 10.9987C7.74519 11.31 7.93234 11.5928 8.16973 11.8302C8.40713 12.0676 8.68991 12.2547 9.0012 12.3805C9.3125 12.5062 9.64593 12.568 9.9816 12.562C10.3173 12.5561 10.6483 12.4826 10.955 12.346C11.2617 12.2094 11.5377 12.0124 11.7665 11.7667" stroke="#020617" stroke-linecap="round" stroke-linejoin="round"/>
<path d="M8.94189 4.23341C9.29299 4.18967 9.64642 4.16741 10.0002 4.16675C15.8336 4.16675 18.3336 10.0001 18.3336 10.0001C17.961 10.7977 17.4937 11.5475 16.9419 12.2334" stroke="#020617" stroke-linecap="round" stroke-linejoin="round"/>
<path d="M5.50817 5.5083C3.85088 6.63715 2.52473 8.18768 1.6665 9.99997C1.6665 9.99997 4.1665 15.8333 9.99984 15.8333C11.5964 15.8376 13.1588 15.3709 14.4915 14.4916" stroke="#020617" stroke-linecap="round" stroke-linejoin="round"/>
<path d="M1.6665 1.66675L18.3332 18.3334" stroke="#020617" stroke-linecap="round" stroke-linejoin="round"/>
</svg>
