<svg width="17" height="14" viewBox="0 0 17 14" fill="none" xmlns="http://www.w3.org/2000/svg">
<path d="M1.66683 13.3334C1.2085 13.3334 0.816135 13.1702 0.489746 12.8438C0.163357 12.5174 0.00016281 12.1251 0.00016281 11.6667V1.66675C0.00016281 1.20841 0.163357 0.816053 0.489746 0.489665C0.816135 0.163276 1.2085 8.17776e-05 1.66683 8.17776e-05H15.0002C15.4585 8.17776e-05 15.8509 0.163276 16.1772 0.489665C16.5036 0.816053 16.6668 1.20841 16.6668 1.66675V11.6667C16.6668 12.1251 16.5036 12.5174 16.1772 12.8438C15.8509 13.1702 15.4585 13.3334 15.0002 13.3334H1.66683ZM8.3335 7.50008L1.66683 3.33341V11.6667H15.0002V3.33341L8.3335 7.50008ZM8.3335 5.83341L15.0002 1.66675H1.66683L8.3335 5.83341ZM1.66683 3.33341V1.66675V3.33341V11.6667V3.33341Z" fill="#737685"/>
</svg>
